<svg xmlns="http://www.w3.org/2000/svg" xmlns:xlink="http://www.w3.org/1999/xlink" width="100" height="100" viewBox="0 0 100 100">
  <defs>
    <clipPath id="clip-path">
      <rect id="Rectangle_1" data-name="Rectangle 1" width="61.154" height="89.004" fill="none"/>
    </clipPath>
    <clipPath id="clip-path-2">
      <path id="Path_3" data-name="Path 3" d="M82.815,99.042a20.434,20.434,0,0,1,1.477,6.5,19.309,19.309,0,0,1-1.844,9.128,19.96,19.96,0,0,1-7.075,8.122,21.337,21.337,0,0,1-13.4,3.285,21.082,21.082,0,0,1-11.929-5.108l-.009,0A27.667,27.667,0,0,0,53,124.828a26.237,26.237,0,0,0,6.731,4.92,20.658,20.658,0,0,0,15.355.51,21.332,21.332,0,0,0,9.2-6.723,20.179,20.179,0,0,0,4.192-9.879,19.319,19.319,0,0,0-1.122-9.295,19.7,19.7,0,0,0-5.914-8.1,21.068,21.068,0,0,1,1.373,2.784" transform="translate(-50.035 -96.258)" fill="none"/>
    </clipPath>
    <radialGradient id="radial-gradient" cx="0.494" cy="0.488" r="0.485" gradientTransform="matrix(-0.951, 0, 0, 0.962, -0.644, 0.061)" gradientUnits="objectBoundingBox">
      <stop offset="0" stop-color="#fff"/>
      <stop offset="0.09" stop-color="#ffecd8"/>
      <stop offset="0.21" stop-color="#ffd4a7"/>
      <stop offset="0.33" stop-color="#ffc07d"/>
      <stop offset="0.46" stop-color="#ffb05a"/>
      <stop offset="0.59" stop-color="#ffa340"/>
      <stop offset="0.72" stop-color="#ff9a2d"/>
      <stop offset="0.86" stop-color="#ff9421"/>
      <stop offset="1" stop-color="#ff931e"/>
    </radialGradient>
    <clipPath id="clip-path-3">
      <path id="Path_4" data-name="Path 4" d="M44,59.181a24.544,24.544,0,0,0-21.164,13.43A23,23,0,0,0,21.791,90.27a30.531,30.531,0,0,0,5.123,8.283,32.85,32.85,0,0,0,4.267,3.843h0A24.025,24.025,0,0,1,26.392,88.13a23.783,23.783,0,0,1,5.341-14.979,23.64,23.64,0,0,1,21.454-8.229,25.672,25.672,0,0,1,10.733,4.338,23.58,23.58,0,0,0-9-7.716,23.841,23.841,0,0,0-10.376-2.369c-.182,0-.366,0-.551.006" transform="translate(-20.486 -59.175)" fill="none"/>
    </clipPath>
    <radialGradient id="radial-gradient-2" cx="0.522" cy="0.5" r="0.501" gradientTransform="translate(-0.004) scale(0.952 1)" xlink:href="#radial-gradient"/>
    <clipPath id="clip-path-5">
      <path id="Path_9" data-name="Path 9" d="M72.81,99.455v0c-.084.251,8.006,5.959,9.414,7.245a1.191,1.191,0,0,1,.459.85c-.021.558-.7.964-1.029,1.137q-5.684,3.863-11.368,7.728l20.394,6.574q-4.493-3.558-8.981-7.119a1.477,1.477,0,0,1-.612-1.131c.057-.615.8-1.009,1.029-1.137,1.307-.722,5.463-3.584,11.368-7.728-15.878-5.2-20.118-6.43-20.622-6.43-.033,0-.05.005-.053.015" transform="translate(-70.286 -99.44)" fill="none"/>
    </clipPath>
    <radialGradient id="radial-gradient-3" cx="0.5" cy="0.499" r="0.36" gradientTransform="matrix(0, -1, -1.012, 0, 1.623, 1.596)" xlink:href="#radial-gradient"/>
    <clipPath id="clip-zima_logo_hm">
      <rect width="100" height="100"/>
    </clipPath>
  </defs>
  <g id="zima_logo_hm" clip-path="url(#clip-zima_logo_hm)">
    <g id="Group_13" data-name="Group 13" transform="translate(19.423 5.498)">
      <g id="Group_2" data-name="Group 2">
        <g id="Group_1" data-name="Group 1" clip-path="url(#clip-path)">
          <path id="Path_1" data-name="Path 1" d="M52.45,123.776a27.558,27.558,0,0,0,2.942,3.858,26.012,26.012,0,0,0,6.684,4.92,20.376,20.376,0,0,0,15.242.516,21.171,21.171,0,0,0,9.131-6.717,20.242,20.242,0,0,0,4.156-9.876,19.448,19.448,0,0,0-1.119-9.295,19.771,19.771,0,0,0-5.872-8.107,21.129,21.129,0,0,1,1.364,2.784,20.6,20.6,0,0,1,1.468,6.5,19.384,19.384,0,0,1-1.829,9.127,19.891,19.891,0,0,1-7.021,8.119,20.846,20.846,0,0,1-25.148-1.832Z" transform="translate(-37.394 -70.639)" fill="#ff7f00"/>
          <path id="Path_2" data-name="Path 2" d="M34.861,106.98a32.846,32.846,0,0,1-4.267-3.843,30.528,30.528,0,0,1-5.123-8.283A23,23,0,0,1,26.512,77.2a24.544,24.544,0,0,1,21.164-13.43A23.863,23.863,0,0,1,58.6,66.129a23.581,23.581,0,0,1,9,7.716,25.669,25.669,0,0,0-10.733-4.339A23.348,23.348,0,0,0,30.072,92.714a24.025,24.025,0,0,0,4.792,14.266Z" transform="translate(-17.23 -45.459)" fill="#ff7f00"/>
        </g>
      </g>
      <g id="Group_4" data-name="Group 4" transform="translate(14.361 27.628)">
        <g id="Group_3" data-name="Group 3" clip-path="url(#clip-path-2)">
          <rect id="Rectangle_2" data-name="Rectangle 2" width="40.807" height="38.826" transform="translate(-1.846 0.093) rotate(-2.87)" fill="url(#radial-gradient)"/>
        </g>
      </g>
      <g id="Group_6" data-name="Group 6" transform="translate(5.88 16.984)">
        <g id="Group_5" data-name="Group 5" clip-path="url(#clip-path-3)">
          <rect id="Rectangle_3" data-name="Rectangle 3" width="45.39" height="43.221" transform="translate(-1.956 0)" fill="url(#radial-gradient-2)"/>
        </g>
      </g>
      <g id="Group_8" data-name="Group 8">
        <g id="Group_7" data-name="Group 7" clip-path="url(#clip-path)">
          <path id="Path_5" data-name="Path 5" d="M53.833,22.856c-.015,0-.081-1.689-.128-1.924-.03-.14-.063-.284-.063-.284l-.018-.072a11.846,11.846,0,0,0-.668-1.754c-.433-.988-.827-1.707-.913-1.862a23.283,23.283,0,0,0-2.106-3.124,31.231,31.231,0,0,0-2.6-2.984,29.253,29.253,0,0,0-2.283-2.071l2.315-.036a18.821,18.821,0,0,1,4.389,5.126A18.4,18.4,0,0,1,53.374,17.7a12.131,12.131,0,0,1,.525,2.527,9.494,9.494,0,0,1-.072,2.632Z" transform="translate(-32.123 -6.236)" fill="#5cba47"/>
          <path id="Path_6" data-name="Path 6" d="M98.282.1a26.915,26.915,0,0,0-8.787.663,15.691,15.691,0,0,0-5.687,2.106A13.311,13.311,0,0,0,78.261,10.1a8.308,8.308,0,0,0-.324,3.284c.337-.427,1.5-1.537,1.5-1.537s.961-.921,1.489-1.466a18.93,18.93,0,0,1,2.6-2.071A15.5,15.5,0,0,1,86.3,6.8a14.606,14.606,0,0,1,2.492-.772c-.621.283-1.483.692-2.492,1.229a22.407,22.407,0,0,0-2.1,1.2,17.81,17.81,0,0,0-2.742,2.309c-.17.17-.811.806-1.578,1.719-.57.677-.854.988-1.224,1.513a12.263,12.263,0,0,0,4.235,1.026,9.425,9.425,0,0,0,2.867-.34,14.317,14.317,0,0,0,4.864-2.271,17.354,17.354,0,0,0,4.213-4.634,24.8,24.8,0,0,0,1.862-3.124,17.513,17.513,0,0,0,1.3-3.368Z" transform="translate(-55.718 0.263)" fill="#51a33d"/>
          <path id="Path_8" data-name="Path 8" d="M97.358.213A25.831,25.831,0,0,0,88.535.6,15.7,15.7,0,0,0,82.847,2.7,13.312,13.312,0,0,0,77.3,9.935a12.393,12.393,0,0,0-.492,3.9q.716-.908,1.546-1.862.819-.936,1.614-1.755a18.93,18.93,0,0,1,2.6-2.071,15.523,15.523,0,0,1,2.772-1.51,14.585,14.585,0,0,1,2.492-.773c-.621.283-1.483.692-2.492,1.229a22.47,22.47,0,0,0-2.1,1.2A17.843,17.843,0,0,0,80.5,10.6c-.17.17-.811.806-1.578,1.719-.57.677-1.035,1.3-1.405,1.826a11.711,11.711,0,0,0,4.037.782,11.94,11.94,0,0,0,3.246-.409,14.322,14.322,0,0,0,4.864-2.271,17.355,17.355,0,0,0,4.213-4.634,24.823,24.823,0,0,0,1.862-3.124A23.63,23.63,0,0,0,97.361.21Z" transform="translate(-54.758 -0.001)" fill="#5cba47"/>
        </g>
      </g>
      <g id="Group_10" data-name="Group 10" transform="translate(20.173 28.541)">
        <g id="Group_9" data-name="Group 9" clip-path="url(#clip-path-5)">
          <rect id="Rectangle_5" data-name="Rectangle 5" width="29.033" height="28.796" transform="translate(-6.246 21.752) rotate(-73.98)" fill="url(#radial-gradient-3)"/>
        </g>
      </g>
      <g id="Group_12" data-name="Group 12">
        <g id="Group_11" data-name="Group 11" clip-path="url(#clip-path)">
          <path id="Path_10" data-name="Path 10" d="M75.316,100.172c.054-.158,3.763.874,20.675,6.415-5.905,4.145-10.062,7.006-11.369,7.728-.233.128-.973.522-1.03,1.137a1.479,1.479,0,0,0,.612,1.131q4.489,3.558,8.981,7.119l-20.394-6.573q5.684-3.863,11.368-7.728c.334-.173,1.008-.579,1.029-1.137a1.188,1.188,0,0,0-.46-.85c-1.408-1.286-9.5-6.994-9.414-7.245Z" transform="translate(-51.899 -71.41)" fill="#ff9d00"/>
          <text id="ZIMA" transform="translate(0.034 83.23)" fill="#ff7f00" font-size="20" font-family="ErasITC-Bold, Eras ITC" font-weight="700"><tspan x="0" y="0">ZIMA</tspan></text>
          <text id="ZIMA-2" data-name="ZIMA" transform="translate(-0.735 83.23)" fill="#ff992c" font-size="20" font-family="ErasITC-Bold, Eras ITC" font-weight="700"><tspan x="0" y="0">ZIMA</tspan></text>
        </g>
      </g>
    </g>
  </g>
</svg>
